<?xml version="1.0" encoding="UTF-8" standalone="no"?>

<svg
   xmlns:dc="http://purl.org/dc/elements/1.1/"
   xmlns:cc="http://creativecommons.org/ns#"
   xmlns:rdf="http://www.w3.org/1999/02/22-rdf-syntax-ns#"
   xmlns:svg="http://www.w3.org/2000/svg"
   xmlns="http://www.w3.org/2000/svg"
   width="64"
   height="64"
   viewBox="0 0 16.933333 16.933334"
   version="1.1"
   id="ubicast-icon">
  <style
     id="style3713"
     type="text/css">
  .st0{fill:#274BB1;}
</style>
  <g
     id="layer1"
     transform="translate(-58.772841,-197.59793)">
    <rect
       id="rect3731"
       width="16.933332"
       height="16.933331"
       x="58.772842"
       y="197.59793"
       style="fill:#ffffff;fill-opacity:1;stroke-width:0;stroke-miterlimit:4;stroke-dasharray:none"
       ry="2.3812492" />
    <g
       id="g3729"
       transform="matrix(0.05181743,0,0,0.05181743,60.539773,198.52775)">
      <path
         id="path3715"
         d="m 88.04,149.41 c 0,0.89 0.05,1.76 0.06,2.65 0.56,19.29 17.33,39.01 41.19,39.01 23.86,0 40.63,-19.72 41.19,-39.01 0.01,-0.89 0.06,-1.76 0.06,-2.65 V 66.77 h 42.33 C 175.76,26.59 129.29,0 129.29,0 c 0,0 -46.47,26.59 -83.58,66.77 h 42.33 z"
         class="st0"
         style="fill:#274bb1" />
      <path
         id="path3717"
         d="m 222.81,148.88 c -2.17,58.15 -47.83,91.47 -93.52,91.47 -45.69,0 -91.35,-33.34 -93.52,-91.49 V 80.78 C 13.52,103.23 0,132.48 0,165.87 2.26,232.39 58.65,290.9 129.27,290.9 c 70.62,0 127.87,-59.79 129.32,-125.02 0,-33.39 -13.52,-62.65 -35.77,-85.09 v 68.09 z"
         class="st0"
         style="fill:#274bb1" />
    </g>
  </g>
</svg>
